<svg xmlns="http://www.w3.org/2000/svg" xmlns:xlink="http://www.w3.org/1999/xlink" width="45" height="45" viewBox="0 0 45 45">
  <defs>
    <clipPath id="clip-path">
      <rect id="Rectangle_1" data-name="Rectangle 1" width="45" height="45" fill="#fff"/>
    </clipPath>
  </defs>
  <g id="_1" data-name="1" clip-path="url(#clip-path)">
    <path id="Path_2" data-name="Path 2" d="M44.121,36.123h-.879V15.029a3.52,3.52,0,0,0-3.516-3.516H29.667l-.639-1.758h.942a.879.879,0,0,0,.879-.879V4.482a.879.879,0,0,0-.879-.879H28.213V.967a.879.879,0,0,0-.879-.879H17.666a.879.879,0,0,0-.879.879V3.6H15.029a.879.879,0,0,0-.879.879V8.877a.879.879,0,0,0,.879.879h.942l-.639,1.758H5.273a3.52,3.52,0,0,0-3.516,3.516V36.123H.879A.879.879,0,0,0,0,37V41.4a3.52,3.52,0,0,0,3.516,3.516H41.484A3.52,3.52,0,0,0,45,41.4V37A.879.879,0,0,0,44.121,36.123ZM18.545,1.846h7.91V3.6h-7.91ZM15.908,5.361H29.092V8H15.908Zm11.25,4.395,3.147,8.655-6.926,9.7V20.152a2.637,2.637,0,1,0-1.758,0v7.955l-6.926-9.7,3.147-8.655ZM22.5,18.545a.879.879,0,1,1,.879-.879A.88.88,0,0,1,22.5,18.545ZM3.516,15.029a1.76,1.76,0,0,1,1.758-1.758h9.42l-1.809,4.973a.879.879,0,0,0,.111.811l7.8,10.915H14.878a2.637,2.637,0,1,0,0,1.758H30.122a2.637,2.637,0,1,0,0-1.758H24.208L32,19.056a.879.879,0,0,0,.111-.811l-1.809-4.973h9.42a1.76,1.76,0,0,1,1.758,1.758V36.123H3.516Zm9.756,15.82a.879.879,0,1,1-.879-.879A.88.88,0,0,1,13.271,30.85Zm18.457,0a.879.879,0,1,1,.879.879A.88.88,0,0,1,31.729,30.85ZM18.545,37.881h7.91v1.758h-7.91Zm24.7,3.516a1.76,1.76,0,0,1-1.758,1.758H3.516A1.76,1.76,0,0,1,1.758,41.4V37.881H16.787v2.637a.879.879,0,0,0,.879.879h9.668a.879.879,0,0,0,.879-.879V37.881H43.242Z" fill="#fff"/>
  </g>
</svg>
